<svg width="157" height="51" viewBox="0 0 157 51" fill="none" xmlns="http://www.w3.org/2000/svg">
<path d="M46.1305 16.7569C46.1735 16.8818 46.1938 17.0264 46.1938 17.1929C46.2142 17.3594 46.2255 17.515 46.2255 17.6596C46.2255 18.0321 46.1825 18.3848 46.0966 18.7157C46.0107 19.0465 45.8727 19.3379 45.6805 19.5855C45.4883 19.8353 45.2306 20.0413 44.9095 20.2078C44.611 20.3524 44.2244 20.4247 43.754 20.4247C43.2837 20.4247 42.8564 20.3305 42.4064 20.1442C41.979 19.958 41.4432 19.6885 40.8032 19.3357L33.9045 15.4817C33.3482 14.7762 33.0701 13.845 33.0701 12.6838C33.0701 11.814 33.199 11.1391 33.4545 10.6637C33.7123 10.186 34.0854 9.81357 34.5783 9.54408L43.4013 4.57047C44.4482 4.83996 45.156 5.21243 45.5177 5.69008C45.9021 6.14581 46.0943 6.64317 46.0943 7.18216C46.0943 7.90739 45.9021 8.47705 45.5177 8.89116C45.1537 9.28554 44.6088 9.65801 43.8807 10.0108L38.2346 12.778L46.1283 16.7569H46.1305ZM60.7579 15.3569C60.7579 15.8958 60.9297 16.2793 61.2712 16.5071C61.6352 16.735 62.1372 16.8489 62.7793 16.8489C63.1004 16.8489 63.4328 16.8292 63.7743 16.7876C64.1157 16.7262 64.4164 16.6539 64.6719 16.5707C64.8641 16.7985 65.0247 17.0571 65.1535 17.3485C65.3028 17.618 65.3774 17.9488 65.3774 18.3432C65.3774 19.1298 65.0676 19.7739 64.4481 20.2713C63.8489 20.7687 62.7793 21.0184 61.2395 21.0184C59.3582 21.0184 57.9021 20.6043 56.8755 19.7739C55.8693 18.9457 55.3673 17.5983 55.3673 15.7315V2.42546C55.6025 2.36411 55.9348 2.30057 56.3622 2.23922C56.8122 2.15596 57.2825 2.11433 57.7732 2.11433C58.7138 2.11433 59.4419 2.28085 59.9552 2.61169C60.4911 2.92282 60.7579 3.59546 60.7579 4.63181V6.62126H64.9614C65.0902 6.84913 65.2078 7.13834 65.3141 7.49109C65.443 7.82194 65.5063 8.1966 65.5063 8.6107C65.5063 9.33593 65.3344 9.86397 64.993 10.197C64.6719 10.5081 64.2333 10.6637 63.677 10.6637H60.7579V15.359V15.3569ZM76.2083 21.0469C74.9466 21.0469 73.7708 20.8804 72.6786 20.5496C71.6091 20.1968 70.6685 19.6797 69.8545 18.9961C69.0631 18.3125 68.4322 17.4515 67.9619 16.4151C67.5119 15.3788 67.2881 14.1671 67.2881 12.778C67.2881 11.3889 67.5119 10.2386 67.9619 9.26582C68.4322 8.2711 69.0427 7.46261 69.7912 6.84036C70.5396 6.19839 71.3943 5.73171 72.3576 5.4403C73.3208 5.12918 74.3044 4.97361 75.3084 4.97361C76.4412 4.97361 77.47 5.14013 78.388 5.47097C79.3287 5.80182 80.1314 6.25755 80.7939 6.83817C81.479 7.41879 82.0036 8.11334 82.3654 8.92183C82.7498 9.73032 82.942 10.6111 82.942 11.5642C82.942 12.2697 82.7385 12.8087 82.3315 13.1812C81.9245 13.5536 81.3592 13.7925 80.6311 13.8954L72.7058 15.0457C72.9409 15.7293 73.4226 16.2486 74.1507 16.5992C74.8787 16.93 75.7131 17.0965 76.6537 17.0965C77.5311 17.0965 78.3541 16.9935 79.1252 16.7854C79.9166 16.5575 80.5588 16.299 81.0494 16.0076C81.3909 16.2157 81.6803 16.5049 81.9154 16.8774C82.1506 17.2499 82.2682 17.6443 82.2682 18.0584C82.2682 18.9918 81.8182 19.6863 80.9205 20.142C80.2354 20.4948 79.4666 20.7336 78.6096 20.8563C77.7549 20.9812 76.9522 21.0425 76.2038 21.0425L76.2083 21.0469ZM75.3084 8.82981C74.7951 8.82981 74.3451 8.91306 73.9607 9.07958C73.5967 9.2461 73.2982 9.46301 73.063 9.73251C72.8279 9.98228 72.647 10.2715 72.5181 10.6023C72.4118 10.9135 72.3463 11.2355 72.3259 11.5664L77.8115 10.6966C77.7481 10.2825 77.513 9.86835 77.106 9.45206C76.699 9.03795 76.0998 8.82981 75.3084 8.82981ZM94.3608 9.14093C93.8272 9.14093 93.3139 9.22419 92.821 9.39071C92.3506 9.55723 91.9346 9.80481 91.5705 10.1378C91.2291 10.449 90.951 10.8434 90.7362 11.3188C90.5236 11.7964 90.4151 12.3552 90.4151 12.9971C90.4151 14.2811 90.7904 15.2451 91.5389 15.8893C92.3099 16.5312 93.2393 16.8533 94.3291 16.8533C94.9713 16.8533 95.5275 16.781 95.9979 16.6364C96.4682 16.4918 96.8865 16.3362 97.2483 16.1697C97.6756 16.4589 97.9967 16.781 98.2115 17.1338C98.4263 17.4646 98.5326 17.87 98.5326 18.3454C98.5326 19.1955 98.1166 19.8594 97.2822 20.3348C96.4478 20.7906 95.2924 21.0184 93.8181 21.0184C92.4705 21.0184 91.2517 20.8322 90.1596 20.4597C89.0697 20.0654 88.1268 19.5264 87.3354 18.8428C86.5644 18.1373 85.9674 17.2981 85.5378 16.3253C85.1104 15.3503 84.8956 14.2745 84.8956 13.0913C84.8956 11.7241 85.1195 10.5322 85.5695 9.5156C86.0398 8.47924 86.6706 7.62913 87.462 6.96525C88.2534 6.30137 89.1624 5.80401 90.189 5.47317C91.2382 5.14232 92.3393 4.9758 93.4925 4.9758C95.0324 4.9758 96.2195 5.2453 97.0538 5.78429C97.8882 6.32328 98.3042 7.01783 98.3042 7.86795C98.3042 8.26233 98.207 8.63481 98.0148 8.98756C97.8226 9.3184 97.5988 9.60981 97.341 9.8574C96.9769 9.69088 96.5383 9.53532 96.025 9.39071C95.5117 9.22419 94.9555 9.14093 94.3563 9.14093H94.3608ZM116.667 20.5189C116.454 20.5802 116.111 20.6438 115.64 20.7051C115.19 20.7665 114.72 20.7993 114.23 20.7993C113.739 20.7993 113.332 20.7687 112.945 20.7051C112.581 20.6438 112.271 20.5189 112.016 20.3327C111.758 20.1464 111.557 19.8966 111.405 19.5855C111.276 19.2547 111.213 18.8296 111.213 18.3103V11.4086C111.213 10.5585 110.989 9.96914 110.539 9.6361C110.112 9.28335 109.576 9.10807 108.936 9.10807C108.509 9.10807 108.102 9.16065 107.717 9.26363C107.333 9.36661 107.023 9.49149 106.788 9.6361V20.5167C106.576 20.5781 106.232 20.6416 105.762 20.7029C105.312 20.7643 104.841 20.7972 104.351 20.7972C103.86 20.7972 103.453 20.7665 103.066 20.7029C102.702 20.6416 102.392 20.5167 102.137 20.3305C101.879 20.1442 101.678 19.8945 101.526 19.5833C101.397 19.2525 101.334 18.8274 101.334 18.3082V0.28045C101.569 0.238821 101.911 0.186237 102.361 0.124888C102.831 0.0416294 103.301 0 103.772 0C104.242 0 104.66 0.0306743 105.022 0.0942138C105.407 0.155562 105.728 0.28045 105.985 0.466687C106.243 0.652924 106.435 0.911464 106.562 1.2445C106.711 1.55562 106.786 1.96973 106.786 2.489V5.53671C107.064 5.43373 107.48 5.31979 108.036 5.19491C108.613 5.0503 109.246 4.97799 109.929 4.97799C112.045 4.97799 113.694 5.49508 114.869 6.53143C116.068 7.54806 116.667 9.07082 116.667 11.1019V20.5211V20.5189ZM16.9414 31.3469C16.4077 31.3469 15.8922 31.4302 15.4015 31.5967C14.9312 31.7632 14.5129 32.0108 14.1511 32.3438C13.8097 32.6549 13.5315 33.0493 13.3167 33.5248C13.1019 34.0024 12.9957 34.5611 12.9957 35.2031C12.9957 36.487 13.371 37.4511 14.1194 38.0952C14.8905 38.7372 15.8198 39.0593 16.9097 39.0593C17.5519 39.0593 18.1081 38.987 18.5784 38.8424C19.0487 38.6978 19.4671 38.5422 19.8288 38.3757C20.2562 38.6649 20.5773 38.987 20.7921 39.3397C21.0069 39.6706 21.1132 40.0759 21.1132 40.5514C21.1132 41.4015 20.6971 42.0654 19.8628 42.5408C19.0284 42.9966 17.8729 43.2244 16.3987 43.2244C15.051 43.2244 13.8323 43.0382 12.7401 42.6657C11.6503 42.2713 10.7074 41.7323 9.91597 41.0487C9.14492 40.3432 8.54797 39.5041 8.11835 38.5313C7.691 37.5563 7.47619 36.4805 7.47619 35.2973C7.47619 33.9301 7.70004 32.7382 8.15001 31.7216C8.62033 30.6852 9.25119 29.8351 10.0426 29.1712C10.834 28.5073 11.743 28.01 12.7695 27.6791C13.8187 27.3483 14.9199 27.1818 16.0731 27.1818C17.6129 27.1818 18.8 27.4513 19.6344 27.9903C20.4687 28.5293 20.8848 29.2238 20.8848 30.0739C20.8848 30.4683 20.7876 30.8408 20.5954 31.1935C20.4032 31.5244 20.1793 31.8158 19.9215 32.0634C19.5575 31.8969 19.1188 31.7413 18.6056 31.5967C18.0923 31.4302 17.536 31.3469 16.9368 31.3469H16.9414ZM39.5144 35.2009C39.5144 36.4849 39.3109 37.6351 38.9039 38.6518C38.4969 39.6465 37.9203 40.4856 37.1718 41.1692C36.4438 41.8528 35.5687 42.3721 34.5399 42.7227C33.5133 43.0754 32.3692 43.2507 31.1074 43.2507C29.8457 43.2507 28.7016 43.0645 27.675 42.692C26.6485 42.3195 25.7598 41.7915 25.0114 41.1057C24.2833 40.4002 23.718 39.5523 23.311 38.5554C22.904 37.5606 22.7005 36.441 22.7005 35.1987C22.7005 33.9564 22.904 32.8675 23.311 31.8728C23.718 30.878 24.2833 30.0389 25.0114 29.3553C25.7598 28.6498 26.6485 28.1108 27.675 27.7383C28.7016 27.3658 29.8457 27.1796 31.1074 27.1796C32.3692 27.1796 33.5133 27.3768 34.5399 27.7712C35.5664 28.1436 36.4438 28.6826 37.1718 29.3881C37.9203 30.0717 38.4969 30.9109 38.9039 31.9056C39.3109 32.9003 39.5144 33.998 39.5144 35.2009ZM28.2855 35.2009C28.2855 36.4651 28.532 37.4401 29.0227 38.1237C29.5359 38.7876 30.2414 39.1185 31.1391 39.1185C32.0368 39.1185 32.7219 38.7767 33.1922 38.0931C33.6852 37.4095 33.9294 36.4454 33.9294 35.2009C33.9294 33.9564 33.6829 33.0033 33.1922 32.3416C32.6993 31.658 32.0051 31.3162 31.1074 31.3162C30.2098 31.3162 29.5133 31.658 29.0227 32.3416C28.5297 33.0055 28.2855 33.9586 28.2855 35.2009ZM52.057 33.1808C52.057 32.5388 51.8648 32.0721 51.4804 31.7807C51.1163 31.4696 50.6144 31.314 49.9722 31.314C49.5448 31.314 49.1175 31.3666 48.6879 31.4696C48.2809 31.5726 47.9281 31.7281 47.6297 31.9363V42.7249C47.4148 42.7862 47.0734 42.8498 46.6031 42.9111C46.1531 42.9725 45.6828 43.0053 45.1921 43.0053C44.7015 43.0053 44.2945 42.9746 43.9078 42.9111C43.5438 42.8498 43.234 42.7249 42.9785 42.5386C42.7207 42.3524 42.5195 42.1026 42.368 41.7915C42.2391 41.4607 42.1758 41.0356 42.1758 40.5163V31.1892C42.1758 30.6304 42.2933 30.1725 42.5285 29.822C42.7863 29.4692 43.1277 29.1493 43.5551 28.8579C44.2832 28.3606 45.1921 27.9574 46.282 27.6463C47.3945 27.3352 48.6246 27.1796 49.9722 27.1796C52.3894 27.1796 54.2503 27.6967 55.555 28.733C56.8597 29.7497 57.5131 31.1672 57.5131 32.9924V42.7227C57.2983 42.784 56.9569 42.8476 56.4866 42.9089C56.0366 42.9703 55.5663 43.0031 55.0756 43.0031C54.5849 43.0031 54.1779 42.9725 53.7913 42.9089C53.4272 42.8476 53.1175 42.7227 52.8597 42.5364C52.6019 42.3502 52.4007 42.1004 52.2492 41.7893C52.1203 41.4585 52.057 41.0334 52.057 40.5141V33.1764V33.1808ZM70.7635 33.1808C70.7635 32.5388 70.5713 32.0721 70.1869 31.7807C69.8228 31.4696 69.3209 31.314 68.6787 31.314C68.2513 31.314 67.824 31.3666 67.3943 31.4696C66.9873 31.5726 66.6346 31.7281 66.3361 31.9363V42.7249C66.1213 42.7862 65.7799 42.8498 65.3096 42.9111C64.8596 42.9725 64.3893 43.0053 63.8986 43.0053C63.4079 43.0053 63.0009 42.9746 62.6143 42.9111C62.2502 42.8498 61.9405 42.7249 61.685 42.5386C61.4272 42.3524 61.2259 42.1026 61.0744 41.7915C60.9456 41.4607 60.8822 41.0356 60.8822 40.5163V31.1892C60.8822 30.6304 60.9998 30.1725 61.235 29.822C61.4928 29.4692 61.8342 29.1493 62.2615 28.8579C62.9896 28.3606 63.8986 27.9574 64.9885 27.6463C66.101 27.3352 67.331 27.1796 68.6787 27.1796C71.0959 27.1796 72.9568 27.6967 74.2615 28.733C75.5661 29.7497 76.2196 31.1672 76.2196 32.9924V42.7227C76.0048 42.784 75.6634 42.8476 75.193 42.9089C74.7431 42.9703 74.2728 43.0031 73.7821 43.0031C73.2914 43.0031 72.8844 42.9725 72.4978 42.9089C72.1337 42.8476 71.8239 42.7227 71.5684 42.5364C71.3107 42.3502 71.1094 42.1004 70.9579 41.7893C70.829 41.4585 70.7657 41.0334 70.7657 40.5141V33.1764L70.7635 33.1808ZM87.8329 43.2529C86.5711 43.2529 85.3953 43.0864 84.3032 42.7555C83.2337 42.4028 82.2931 41.8857 81.479 41.2021C80.6876 40.5185 80.0568 39.6574 79.5865 38.6211C79.1365 37.5847 78.9126 36.3731 78.9126 34.984C78.9126 33.5949 79.1365 32.4446 79.5865 31.4718C80.0568 30.4771 80.6673 29.6686 81.4157 29.0463C82.1642 28.4044 83.0189 27.9377 83.9821 27.6463C84.9454 27.3352 85.929 27.1796 86.9329 27.1796C88.0658 27.1796 89.0923 27.3461 90.0126 27.677C90.9532 28.0078 91.756 28.4635 92.4185 29.0441C93.1036 29.6248 93.6259 30.3193 93.99 31.1278C94.3744 31.9363 94.5666 32.8171 94.5666 33.7702C94.5666 34.4757 94.3631 35.0147 93.9561 35.3871C93.549 35.7596 92.9815 35.9984 92.2557 36.1014L84.3304 37.2517C84.5655 37.9353 85.0471 38.4546 85.7752 38.8051C86.501 39.136 87.3354 39.3025 88.2783 39.3025C89.1556 39.3025 89.9787 39.1995 90.7497 38.9914C91.5411 38.7635 92.1833 38.505 92.674 38.2136C93.0154 38.4217 93.3048 38.7109 93.54 39.0834C93.7752 39.4559 93.8927 39.8503 93.8927 40.2644C93.8927 41.1977 93.4428 41.8923 92.5451 42.348C91.86 42.7008 91.0912 42.9396 90.2342 43.0623C89.3795 43.1872 88.5768 43.2485 87.8283 43.2485L87.8329 43.2529ZM86.9329 31.0358C86.4196 31.0358 85.9697 31.119 85.5853 31.2856C85.2212 31.4521 84.9228 31.669 84.6876 31.9385C84.4524 32.1883 84.2716 32.4775 84.1427 32.8083C84.0364 33.1194 83.9708 33.4415 83.9505 33.7724L89.436 32.9025C89.3727 32.4884 89.1353 32.0743 88.7305 31.658C88.3235 31.2439 87.7243 31.0358 86.9329 31.0358ZM105.985 31.3469C105.449 31.3469 104.936 31.4302 104.446 31.5967C103.975 31.7632 103.557 32.0108 103.195 32.3438C102.854 32.6549 102.576 33.0493 102.361 33.5248C102.146 34.0024 102.04 34.5611 102.04 35.2031C102.04 36.487 102.413 37.4511 103.163 38.0952C103.934 38.7372 104.864 39.0593 105.954 39.0593C106.596 39.0593 107.152 38.987 107.622 38.8424C108.093 38.6978 108.509 38.5422 108.873 38.3757C109.3 38.6649 109.621 38.987 109.836 39.3397C110.049 39.6706 110.157 40.0759 110.157 40.5514C110.157 41.4015 109.741 42.0654 108.907 42.5408C108.072 42.9966 106.917 43.2244 105.443 43.2244C104.095 43.2244 102.876 43.0382 101.784 42.6657C100.694 42.2713 99.7514 41.7323 98.96 41.0487C98.1889 40.3432 97.592 39.5041 97.1624 38.5313C96.735 37.5563 96.5202 36.4805 96.5202 35.2973C96.5202 33.9301 96.744 32.7382 97.194 31.7216C97.6643 30.6852 98.2952 29.8351 99.0866 29.1712C99.878 28.5073 100.787 28.01 101.814 27.6791C102.86 27.3483 103.964 27.1818 105.117 27.1818C106.657 27.1818 107.844 27.4513 108.678 27.9903C109.513 28.5293 109.929 29.2238 109.929 30.0739C109.929 30.4683 109.832 30.8408 109.639 31.1935C109.447 31.5244 109.223 31.8158 108.966 32.0634C108.602 31.8969 108.163 31.7413 107.65 31.5967C107.136 31.4302 106.58 31.3469 105.981 31.3469H105.985ZM118.347 37.565C118.347 38.104 118.519 38.4874 118.86 38.7153C119.224 38.9432 119.726 39.0571 120.369 39.0571C120.69 39.0571 121.02 39.0374 121.363 38.9958C121.705 38.9344 122.006 38.8621 122.261 38.7788C122.453 39.0067 122.614 39.2653 122.743 39.5567C122.892 39.8262 122.967 40.157 122.967 40.5514C122.967 41.338 122.657 41.9821 122.037 42.4795C121.438 42.9768 120.369 43.2266 118.829 43.2266C116.947 43.2266 115.491 42.8125 114.465 41.9821C113.458 41.1539 112.956 39.8064 112.956 37.9397V24.6336C113.192 24.5723 113.524 24.5087 113.951 24.4474C114.401 24.3641 114.872 24.3225 115.362 24.3225C116.303 24.3225 117.031 24.489 117.544 24.8199C118.078 25.131 118.347 25.8036 118.347 26.84V28.8294H122.551C122.679 29.0573 122.797 29.3465 122.903 29.6993C123.032 30.0301 123.095 30.4048 123.095 30.8189C123.095 31.5441 122.924 32.0721 122.582 32.4052C122.261 32.7163 121.822 32.8719 121.266 32.8719H118.347V37.5672V37.565ZM128.907 46.0508C128.606 46.0925 128.319 46.1122 128.041 46.1122C127.762 46.1341 127.505 46.1429 127.27 46.1429C126.372 46.1429 125.675 45.9566 125.185 45.5842C124.714 45.2117 124.479 44.6091 124.479 43.7809C124.479 43.2222 124.565 42.6613 124.737 42.1026C124.909 41.522 125.058 41.0137 125.187 40.5799L130.833 20.8388C131.154 20.7972 131.453 20.7774 131.731 20.7774C132.009 20.7577 132.264 20.7468 132.502 20.7468C133.357 20.7468 134.03 20.922 134.523 21.2748C135.037 21.6275 135.294 22.1972 135.294 22.9838C135.294 23.5841 135.208 24.1538 135.037 24.6928C134.865 25.2318 134.704 25.7708 134.555 26.3098L128.909 46.0508H128.907ZM136.472 30.4442C136.429 30.3193 136.398 30.1747 136.375 30.0082V29.5415C136.375 29.169 136.418 28.8163 136.504 28.4854C136.59 28.1546 136.728 27.8632 136.92 27.6156C137.112 27.3658 137.359 27.1708 137.657 27.024C137.978 26.8575 138.374 26.7743 138.844 26.7743C139.315 26.7743 139.731 26.8685 140.16 27.0547C140.61 27.2409 141.155 27.5104 141.797 27.8632L148.696 31.7172C149.252 32.4227 149.531 33.3539 149.531 34.5151C149.531 35.385 149.402 36.0598 149.146 36.5352C148.891 37.0107 148.515 37.3854 148.022 37.6549L139.199 42.6285C138.15 42.359 137.436 41.9953 137.049 41.5395C136.685 41.0619 136.504 40.5558 136.504 40.0168C136.504 39.2915 136.685 38.7328 137.049 38.3385C137.433 37.9243 137.99 37.5409 138.718 37.1882L144.364 34.4209L136.47 30.442L136.472 30.4442Z" fill="url(#paint0_linear_165_4418)"/>
<path d="M21.1584 13.6303C21.1199 13.225 21.4681 12.8832 21.8865 12.9204C22.4382 12.9686 23.1957 12.9511 23.9079 12.6487C24.9503 12.2083 25.8729 11.8468 26.6937 11.9082C27.069 11.9367 27.3516 12.2522 27.32 12.6159L26.723 19.5001C26.723 19.5001 26.6009 20.5123 25.7847 20.4838H22.6326C22.6326 20.4838 22.0628 20.497 21.7598 19.7827C21.735 19.7257 21.7237 19.6644 21.7169 19.603L21.1584 13.6303Z" fill="url(#paint1_linear_165_4418)"/>
<path d="M20.2698 11.3539C20.3874 11.4371 20.4235 11.7373 20.4371 11.8775C20.5615 13.0869 21.2149 19.4584 21.2466 19.6644C21.2896 19.9448 21.4682 20.6394 22.1375 20.887C22.1375 20.887 22.3365 21.0513 23.4603 21.0513H25.8774C25.9498 21.0513 26.0199 21.036 26.0922 21.025C27.051 20.8892 27.0193 20.6503 27.1505 19.7104C27.2906 18.7091 27.9961 11.5182 27.9961 11.5182C27.9961 11.5182 28.1951 10.6987 27.5032 10.7886C26.8113 10.8784 17.5406 11.8315 17.8345 9.49368C18.1262 7.15586 18.5875 7.25884 19.4942 7.2435C20.4009 7.22816 22.8611 7.72114 25.0137 7.63131C26.0448 7.58749 26.7841 7.55901 27.2635 7.47137C28.0029 7.33552 28.0074 7.33552 28.0278 6.46131C28.03 6.35176 28.0233 6.1699 28.012 6.06254C27.9147 5.14012 27.9848 5.219 25.6898 5.11383C25.6898 5.11383 21.371 4.93417 20.9866 5.38113C20.6022 5.8281 26.5987 5.59366 26.7367 5.58928C27.3585 5.56737 27.7451 6.26631 26.8135 6.48322C26.1307 6.64316 21.4162 6.73737 19.8424 6.15675C19.5191 6.03844 19.2681 5.76894 19.2364 5.43591C19.2138 5.1949 19.2975 4.91006 19.6977 4.6822C19.6977 4.6822 20.6655 4.16074 22.2505 4.11692C23.8356 4.0731 27.9532 3.9986 28.523 4.92102C28.523 4.92102 28.8621 5.1445 28.9684 6.26192C28.9684 6.26192 29.0611 6.9762 29.1222 7.06603C29.1832 7.15586 29.7824 7.28951 30.0764 7.60283C30.0764 7.60283 30.5693 8.00597 30.5987 9.10806C30.5987 9.10806 30.7638 10.0655 29.744 10.5147C29.4184 10.6593 29.2036 10.9682 29.1719 11.3144C28.9797 13.3893 28.2245 19.7608 28.1521 20.3283C28.0798 20.8957 28.1069 21.5333 26.5852 21.7984C25.1652 22.046 22.3433 21.9781 21.9883 21.8576C21.6333 21.7371 20.3896 21.7239 20.1906 19.5198C20.0165 17.5895 19.5213 13.0541 19.4015 11.9564C19.3766 11.7307 19.3224 11.4985 19.5982 11.3319C19.8062 11.2071 19.8922 11.0822 20.272 11.356L20.2698 11.3539Z" fill="url(#paint2_linear_165_4418)"/>
<defs>
<linearGradient id="paint0_linear_165_4418" x1="79.3038" y1="1.4636" x2="78.3038" y2="45.877" gradientUnits="userSpaceOnUse">
<stop stop-color="#6B4DE6" stop-opacity="0.87"/>
<stop offset="1" stop-color="#4DADE6"/>
</linearGradient>
<linearGradient id="paint1_linear_165_4418" x1="21.1561" y1="16.1938" x2="27.3223" y2="16.1938" gradientUnits="userSpaceOnUse">
<stop stop-color="#6B4DE6" stop-opacity="0.87"/>
<stop offset="1" stop-color="#4DADE6"/>
</linearGradient>
<linearGradient id="paint2_linear_165_4418" x1="17.8277" y1="13.0278" x2="30.6055" y2="13.0278" gradientUnits="userSpaceOnUse">
<stop stop-color="#6B4DE6" stop-opacity="0.87"/>
<stop offset="1" stop-color="#4DADE6"/>
</linearGradient>
</defs>
</svg>
