<svg width="1040" height="721" viewBox="0 0 1040 721" fill="none" xmlns="http://www.w3.org/2000/svg">
<rect x="1" y="1" width="331" height="331" rx="9" fill="white" stroke="url(#paint0_linear_368_1446)" stroke-width="2"/>
<rect x="1" y="389" width="331" height="331" rx="9" fill="white" stroke="url(#paint1_linear_368_1446)" stroke-width="2"/>
<rect x="355" y="1" width="331" height="331" rx="9" fill="white" stroke="url(#paint2_linear_368_1446)" stroke-width="2"/>
<rect x="355" y="389" width="331" height="331" rx="9" fill="white" stroke="url(#paint3_linear_368_1446)" stroke-width="2"/>
<rect x="708" y="1" width="331" height="331" rx="9" fill="white" stroke="url(#paint4_linear_368_1446)" stroke-width="2"/>
<rect x="708" y="389" width="331" height="331" rx="9" fill="white" stroke="url(#paint5_linear_368_1446)" stroke-width="2"/>
<g clip-path="url(#clip0_368_1446)">
<path d="M284.785 144.342H61.2154V201.658H284.785V144.342Z" fill="#005CAA"/>
<path fill-rule="evenodd" clip-rule="evenodd" d="M116.238 164.686C118.962 154.984 111.062 152.028 102.752 152.028C94.3326 152.028 85.4098 154.65 82.9382 164.185C82.0178 168.534 83.235 172.214 86.9251 173.999C94.8617 177.847 103.366 176.676 102.205 182.141C101.637 184.817 98.0686 186.156 95.4939 186.156C91.4784 186.156 89.1372 184.092 89.9917 180.3H78.8395C76.6833 191.23 84.3603 193.972 93.729 193.972C103.04 193.972 112.26 189.948 114.064 181.471C116.369 170.597 106.703 169.928 100.318 168.2C97.5296 167.419 94.1649 166.471 94.7884 163.515C95.2157 161.508 97.7991 159.835 100.364 159.835C102.26 159.835 103.617 160.281 104.388 161.118C105.215 161.954 105.466 163.125 105.086 164.686H116.238ZM148.498 193.127L150.162 185.319H130.645L132.457 176.788H150.413L152.067 168.98H134.111L135.876 160.671H155.395L157.058 152.865H126.387L117.828 193.127H148.498ZM154.8 193.127H164.837L171.39 162.288H171.5L178.611 193.127H194.057L202.617 152.865H192.58L186.222 182.754L186.091 182.866L178.973 152.865H163.359L154.8 193.127ZM209.336 193.127L213.63 185.263H229.969L230.972 193.127H243.575L236.242 152.865H222.636L198.184 193.127H209.336ZM218.128 177.456L227.153 160.727H227.321L228.891 177.456H218.128ZM258.967 193.127L267.527 152.865H256.373L247.814 193.127H258.967Z" fill="white"/>
<path fill-rule="evenodd" clip-rule="evenodd" d="M61.2154 172.402H72.9306V173.599H61.2154V172.402Z" fill="white"/>
<path fill-rule="evenodd" clip-rule="evenodd" d="M61.2154 162.711H72.9306V163.908H61.2154V162.711Z" fill="white"/>
<path fill-rule="evenodd" clip-rule="evenodd" d="M61.2154 153.02H72.9306V154.217H61.2154V153.02Z" fill="white"/>
<path fill-rule="evenodd" clip-rule="evenodd" d="M61.2154 182.092H72.9306V183.289H61.2154V182.092Z" fill="white"/>
<path fill-rule="evenodd" clip-rule="evenodd" d="M61.2154 191.783H72.9306V192.98H61.2154V191.783Z" fill="white"/>
<path fill-rule="evenodd" clip-rule="evenodd" d="M273.069 172.402H284.785V173.599H273.069V172.402Z" fill="white"/>
<path fill-rule="evenodd" clip-rule="evenodd" d="M273.069 162.711H284.785V163.908H273.069V162.711Z" fill="white"/>
<path fill-rule="evenodd" clip-rule="evenodd" d="M273.069 153.02H284.785V154.217H273.069V153.02Z" fill="white"/>
<path fill-rule="evenodd" clip-rule="evenodd" d="M273.069 182.092H284.785V183.289H273.069V182.092Z" fill="white"/>
<path fill-rule="evenodd" clip-rule="evenodd" d="M273.069 191.783H284.785V192.98H273.069V191.783Z" fill="white"/>
</g>
<g clip-path="url(#clip1_368_1446)">
<path fill-rule="evenodd" clip-rule="evenodd" d="M940.32 77.1143H950.156L949.847 78.8624H948.003C947.081 78.8624 946.467 78.6578 946.467 78.6578V81.8464C946.467 82.9767 946.159 84.1095 946.159 85.2398C946.159 86.3713 945.851 87.5029 945.851 88.1208H943.394V85.2398C943.394 84.1095 943.701 82.9767 943.701 81.8464C943.701 80.6119 944.006 79.1727 944.006 78.6578H942.778H941.547C940.933 78.6578 940.319 78.8624 940.319 78.8624L940.32 77.1143ZM951.383 77.1143H954.763C954.763 77.7309 955.07 78.3488 955.07 78.6564C955.07 79.1714 955.684 80.0956 955.992 81.2272C955.992 81.5362 956.3 82.3587 956.3 82.9754C956.605 84.1069 957.222 85.2385 957.222 85.2385C957.222 84.6218 957.836 83.7993 958.144 82.6677C958.449 81.8451 959.066 80.6106 959.372 79.788C959.68 78.8611 960.294 77.7309 960.294 77.1143H963.983V80.6106C963.983 81.8451 963.675 83.4903 963.675 84.6218V88.1195H961.217V85.8564V82.9754C961.217 82.0498 961.525 81.2272 961.525 80.6093V79.4804L958.145 88.1208H955.684C955.684 87.5029 955.07 86.3727 955.07 85.5487C954.763 84.1095 954.148 82.9767 954.148 82.669C954.148 82.0524 953.534 80.9209 953.227 79.7893V82.669C953.227 83.4916 952.919 84.6232 952.919 85.5487V88.1208H950.461C950.461 86.9893 950.769 85.5487 950.769 84.3155C950.769 83.287 951.074 81.8464 951.074 80.6119C951.075 79.4804 951.383 78.3488 951.383 77.1143ZM833.16 252.278H826.603L824.043 243.022H811.953L809.392 252.278H803.04L814.207 211.341H821.378L833.16 252.278ZM822.197 236.336L817.896 220.909L813.899 236.336H822.197ZM856.723 252.278H851.19V248.062C850.268 249.913 849.039 251.149 847.912 251.662C846.786 252.279 845.555 253.001 844.325 253.001C842.071 253.001 839.819 251.456 838.179 248.886C836.335 246.521 835.516 242.408 835.516 237.573C835.516 232.637 836.336 228.314 837.872 225.744C839.511 223.276 841.867 221.734 844.634 221.734C846.786 221.734 849.04 223.276 850.985 226.053V211.342H856.723V252.278ZM841.151 236.852C841.151 239.936 841.561 242.713 842.073 243.949C842.996 245.8 844.327 247.033 845.864 247.033C847.298 247.033 848.425 246.108 849.346 244.977C850.268 243.433 850.985 240.862 850.985 237.777C850.985 234.485 850.474 231.709 849.552 230.164C848.731 228.622 847.298 227.594 845.864 227.594C844.634 227.594 843.507 228.622 842.483 229.858C841.56 231.4 841.151 233.765 841.151 236.852ZM861.435 236.852C861.435 234.485 861.741 231.914 862.665 229.549C863.689 227.081 865.021 225.23 866.66 223.994C868.401 222.658 870.553 221.732 872.603 221.732C875.779 221.732 878.75 223.275 880.696 226.051C882.847 229.136 883.974 233.251 883.974 237.572C883.974 241.892 882.847 245.8 880.696 248.578C878.442 251.456 875.779 253.001 872.603 253.001C870.656 253.001 868.71 252.279 866.866 251.15C865.023 249.914 863.69 248.063 862.666 245.801C861.744 243.434 861.436 240.35 861.436 237.263L861.435 236.852ZM867.171 237.572C867.171 240.659 867.479 243.023 868.401 244.566C869.425 246.108 870.963 247.033 872.398 247.033C873.729 247.033 875.266 246.108 876.188 244.566C877.212 243.023 877.826 240.659 877.826 237.572C877.826 234.485 877.212 231.914 876.188 230.372C875.266 228.623 873.729 227.594 872.398 227.594C870.963 227.594 869.529 228.622 868.709 230.164C867.787 231.912 867.171 234.485 867.171 237.572ZM888.481 252.278V211.341H894.217V226.051C895.858 223.273 898.213 221.732 900.466 221.732C903.129 221.732 905.384 223.275 907.126 225.742C908.867 228.313 909.893 232.223 909.893 237.263C909.893 242.201 908.868 246.521 907.126 248.886C905.282 251.456 903.029 253.001 900.774 253.001C899.545 253.001 898.213 252.279 897.085 251.662C895.856 251.149 894.729 249.607 894.113 248.062V252.278H888.481ZM894.217 236.852C894.217 239.936 894.731 242.713 895.241 243.949C896.163 245.8 897.702 247.033 899.34 247.033C900.774 247.033 901.901 246.108 902.72 244.977C903.642 243.742 904.153 240.862 904.153 237.777C904.153 234.485 903.642 231.709 902.72 230.164C901.901 228.622 900.465 227.594 899.031 227.594C897.7 227.594 896.573 228.622 895.651 229.858C894.731 231.4 894.217 233.765 894.217 236.852ZM927.307 243.023L933.045 243.949C932.428 247.033 930.995 249.607 929.563 250.737C927.924 251.973 925.669 253.001 923.313 253.001C919.831 253.001 916.756 251.15 915.014 248.063C913.58 245.492 912.963 241.892 912.963 237.779C912.963 232.944 913.783 228.831 915.626 226.053C917.47 223.275 920.135 221.734 923.003 221.734C926.177 221.734 928.741 223.276 930.483 226.053C932.428 229.137 933.555 233.766 933.555 239.63H918.704C918.704 242.201 919.011 243.949 920.037 245.285C920.957 246.521 922.085 247.033 923.314 247.033C924.339 247.033 925.261 246.83 925.67 246.108C926.18 245.491 926.797 244.258 927.307 243.023ZM927.821 234.793C927.821 232.635 927.002 230.681 926.385 229.548C925.566 228.312 924.338 227.594 923.211 227.594C921.877 227.594 920.65 228.622 920.036 229.858C919.011 231.091 918.702 232.942 918.702 234.793H927.821Z" fill="black"/>
<path fill-rule="evenodd" clip-rule="evenodd" d="M802.016 73H851.19L802.016 193.24V73ZM884.69 73H934.478V191.695L884.69 73ZM868.504 118.976L895.653 191.08H878.851L867.274 168.247H848.834L868.504 118.976Z" fill="#CC2229"/>
</g>
<path d="M463.937 154.712C463.937 157.538 464.242 159.829 464.776 161.509C465.387 163.19 466.15 165.023 467.218 167.008C467.6 167.619 467.753 168.23 467.753 168.765C467.753 169.529 467.295 170.292 466.303 171.056L461.495 174.264C460.808 174.722 460.121 174.951 459.511 174.951C458.747 174.951 457.984 174.569 457.221 173.882C456.153 172.736 455.237 171.514 454.474 170.292C453.711 168.994 452.947 167.543 452.108 165.786C446.155 172.813 438.676 176.326 429.671 176.326C423.261 176.326 418.147 174.493 414.408 170.827C410.668 167.161 408.761 162.273 408.761 156.163C408.761 149.671 411.05 144.402 415.705 140.43C420.361 136.459 426.542 134.473 434.403 134.473C436.997 134.473 439.668 134.702 442.492 135.084C445.316 135.466 448.216 136.077 451.268 136.764V131.189C451.268 125.385 450.047 121.337 447.682 118.969C445.239 116.602 441.118 115.456 435.242 115.456C432.571 115.456 429.824 115.762 427 116.449C424.176 117.136 421.429 117.976 418.758 119.046C417.537 119.58 416.621 119.886 416.087 120.038C415.553 120.191 415.171 120.268 414.866 120.268C413.797 120.268 413.263 119.504 413.263 117.9V114.158C413.263 112.936 413.416 112.019 413.797 111.485C414.179 110.95 414.866 110.415 415.934 109.881C418.605 108.506 421.811 107.36 425.55 106.444C429.289 105.451 433.258 104.993 437.455 104.993C446.537 104.993 453.176 107.055 457.45 111.179C461.647 115.303 463.784 121.566 463.784 129.967V154.712H463.937ZM432.953 166.321C435.471 166.321 438.066 165.863 440.813 164.946C443.561 164.03 446.003 162.349 448.063 160.058C449.284 158.607 450.2 157.003 450.658 155.17C451.116 153.337 451.421 151.123 451.421 148.526V145.318C449.208 144.784 446.842 144.325 444.4 144.02C441.958 143.714 439.592 143.562 437.226 143.562C432.113 143.562 428.374 144.554 425.855 146.616C423.337 148.679 422.116 151.581 422.116 155.399C422.116 158.989 423.032 161.662 424.939 163.495C426.771 165.404 429.442 166.321 432.953 166.321ZM494.234 174.569C492.861 174.569 491.945 174.34 491.334 173.806C490.724 173.347 490.189 172.278 489.732 170.827L471.797 111.79C471.339 110.263 471.111 109.27 471.111 108.735C471.111 107.513 471.721 106.826 472.942 106.826H480.421C481.871 106.826 482.863 107.055 483.397 107.59C484.008 108.048 484.466 109.117 484.924 110.568L497.745 161.127L509.65 110.568C510.032 109.041 510.489 108.048 511.1 107.59C511.711 107.131 512.779 106.826 514.153 106.826H520.258C521.708 106.826 522.7 107.055 523.311 107.59C523.921 108.048 524.455 109.117 524.761 110.568L536.818 161.738L550.021 110.568C550.479 109.041 551.013 108.048 551.547 107.59C552.158 107.131 553.15 106.826 554.524 106.826H561.621C562.842 106.826 563.529 107.437 563.529 108.735C563.529 109.117 563.453 109.499 563.376 109.957C563.3 110.415 563.147 111.026 562.842 111.866L544.45 170.903C543.992 172.431 543.458 173.424 542.847 173.882C542.237 174.34 541.245 174.646 539.947 174.646H533.384C531.934 174.646 530.942 174.416 530.332 173.882C529.721 173.347 529.187 172.354 528.882 170.827L517.053 121.566L505.3 170.751C504.918 172.278 504.461 173.271 503.85 173.806C503.239 174.34 502.171 174.569 500.797 174.569H494.234ZM592.3 176.631C588.332 176.631 584.363 176.173 580.547 175.257C576.732 174.34 573.755 173.347 571.771 172.202C570.55 171.514 569.711 170.751 569.405 170.063C569.1 169.376 568.947 168.612 568.947 167.925V164.03C568.947 162.426 569.558 161.662 570.703 161.662C571.161 161.662 571.618 161.738 572.076 161.891C572.534 162.044 573.221 162.349 573.984 162.655C576.579 163.801 579.403 164.717 582.379 165.328C585.432 165.939 588.408 166.245 591.461 166.245C596.268 166.245 600.008 165.404 602.603 163.724C605.197 162.044 606.571 159.6 606.571 156.469C606.571 154.33 605.884 152.574 604.511 151.123C603.137 149.671 600.542 148.373 596.803 147.151L585.737 143.714C580.166 141.958 576.045 139.361 573.526 135.924C571.008 132.564 569.711 128.821 569.711 124.85C569.711 121.642 570.397 118.816 571.771 116.373C573.145 113.929 574.976 111.79 577.266 110.11C579.555 108.353 582.15 107.055 585.203 106.138C588.255 105.222 591.461 104.84 594.818 104.84C596.497 104.84 598.253 104.916 599.932 105.146C601.687 105.375 603.289 105.68 604.892 105.986C606.418 106.368 607.868 106.749 609.242 107.208C610.616 107.666 611.684 108.124 612.447 108.582C613.516 109.193 614.279 109.804 614.737 110.492C615.195 111.103 615.424 111.943 615.424 113.012V116.602C615.424 118.206 614.813 119.046 613.668 119.046C613.058 119.046 612.066 118.74 610.768 118.129C606.418 116.143 601.534 115.151 596.116 115.151C591.766 115.151 588.332 115.838 585.966 117.289C583.6 118.74 582.379 120.955 582.379 124.086C582.379 126.225 583.142 128.058 584.668 129.509C586.195 130.96 589.018 132.411 593.063 133.709L603.9 137.146C609.395 138.903 613.363 141.347 615.729 144.478C618.095 147.609 619.239 151.199 619.239 155.17C619.239 158.454 618.553 161.433 617.255 164.03C615.882 166.626 614.05 168.918 611.684 170.751C609.318 172.66 606.495 174.035 603.213 175.027C599.779 176.097 596.192 176.631 592.3 176.631Z" fill="#252F3E"/>
<path fill-rule="evenodd" clip-rule="evenodd" d="M606.724 213.749C581.616 232.308 545.137 242.16 513.771 242.16C469.813 242.16 430.205 225.892 400.289 198.856C397.924 196.718 400.061 193.815 402.884 195.496C435.242 214.284 475.155 225.663 516.442 225.663C544.297 225.663 574.9 219.859 603.061 207.945C607.258 206.035 610.845 210.694 606.724 213.749Z" fill="#FF9900"/>
<path fill-rule="evenodd" clip-rule="evenodd" d="M617.179 201.835C613.974 197.71 595.963 199.849 587.797 200.842C585.355 201.147 584.974 199.009 587.187 197.405C601.534 187.324 625.116 190.226 627.863 193.586C630.611 197.023 627.1 220.623 613.668 231.926C611.608 233.682 609.624 232.766 610.54 230.475C613.592 222.914 620.384 205.882 617.179 201.835Z" fill="#FF9900"/>
<path d="M152.967 447.737C146.786 447.884 142.252 448.101 133.939 448.614C130.094 448.843 125.897 449.181 122.942 449.477C122.2 449.557 120.648 449.706 119.501 449.815C114.684 450.287 107.532 451.19 104.523 451.703C103.888 451.811 102.957 451.96 102.432 452.041C101.919 452.109 101.001 452.27 100.407 452.378C99.8139 452.487 98.8148 452.676 98.1814 452.783C95.9535 453.161 92.1629 453.93 90.0175 454.443C89.4225 454.592 88.3567 454.847 87.6552 455.01C86.9532 455.171 86.3201 455.32 86.2395 455.334C82.2841 456.277 78.3574 458.181 75.3352 460.65C72.3932 463.039 69.7629 466.898 68.44 470.73C68.225 471.324 68.0077 471.931 67.9414 472.08C67.712 472.593 66.713 476.91 65.9971 480.447C65.8904 481.04 65.7014 481.916 65.593 482.403C65.4841 482.888 65.3376 483.738 65.2426 484.291C65.1606 484.844 65.0536 485.52 64.9855 485.775C64.7825 486.546 63.96 491.807 63.4332 495.626C62.9206 499.324 62.5828 502.01 62.2872 504.735C62.1384 506.07 61.9897 507.379 61.9633 507.636C61.9229 507.891 61.8006 509.201 61.6797 510.538C61.5713 511.873 61.4104 513.506 61.328 514.181C61.0444 516.663 60.3424 527.473 59.993 535.097C59.7233 540.75 59.5481 552.855 59.6426 559.454C59.7372 567.684 59.9383 575.04 60.1274 577.603C60.1959 578.641 60.3303 580.829 60.4109 582.461C60.4916 584.094 60.6 586.185 60.6681 587.116C60.9781 591.785 61.2214 594.847 61.3419 595.819C61.4104 596.414 61.5713 597.992 61.6797 599.313C61.7881 600.636 61.9494 602.215 62.0175 602.822C62.0981 603.43 62.2468 604.738 62.3535 605.738C62.6913 608.935 62.9484 611.026 63.1639 612.417C63.2723 613.159 63.4614 614.428 63.568 615.251C63.96 618.219 64.4183 621.106 64.9174 623.752C65.0258 624.345 65.201 625.345 65.3233 625.978C65.5526 627.327 66.079 630.014 66.4572 631.713C67.7519 637.665 68.319 639.444 69.8436 642.374C70.2616 643.183 70.801 644.127 71.0442 644.465C71.2732 644.803 71.6109 645.288 71.7861 645.545C72.5558 646.691 74.7559 648.931 75.9704 649.796C76.1716 649.943 76.5636 650.226 76.8189 650.429C77.0904 650.644 77.3458 650.807 77.4139 650.807C77.4681 650.807 77.6029 650.902 77.7096 651.01C78.2364 651.523 81.9481 653.291 83.5389 653.763C83.8364 653.857 84.2006 653.978 84.3494 654.047C84.7011 654.208 86.6835 654.706 89.0726 655.247C90.112 655.49 91.1778 655.746 91.4336 655.814C92.0545 655.975 95.9674 656.757 98.9233 657.298C100.623 657.608 103.93 658.135 106.007 658.432C106.79 658.539 107.789 658.687 108.234 658.768C109.866 659.052 116.614 659.836 120.851 660.24C122.375 660.388 124.251 660.564 125.033 660.644C126.302 660.779 127.597 660.887 133.804 661.332C134.735 661.4 136.855 661.521 138.527 661.603C140.201 661.684 142.535 661.805 143.723 661.873C153.331 662.425 180.804 662.425 190.277 661.873C191.465 661.792 193.799 661.684 195.473 661.603C198.346 661.469 199.399 661.4 203.906 661.062C209.681 660.618 218.17 659.793 221.044 659.389C221.866 659.268 223.284 659.079 224.215 658.957C227.655 658.513 232.378 657.797 235.077 657.298C238.033 656.757 241.945 655.975 242.567 655.814C242.822 655.746 243.888 655.49 244.928 655.247C247.262 654.72 249.287 654.208 249.651 654.047C250.099 653.885 250.549 653.727 251 653.574C252.106 653.21 255.777 651.469 256.087 651.171C256.182 651.077 256.451 650.876 256.681 650.739C257.734 650.079 258.219 649.701 259.178 648.837C260.257 647.851 261.756 646.233 262.119 645.68C262.24 645.491 262.564 645.032 262.833 644.668C263.117 644.29 263.346 643.953 263.346 643.898C263.346 643.844 263.563 643.466 263.819 643.062C264.076 642.657 264.386 642.063 264.509 641.739C264.643 641.429 264.777 641.091 264.832 641.025C265.087 640.687 266.033 638.001 266.437 636.476C267.072 634.115 268.258 628.542 268.691 625.91C268.799 625.236 268.92 624.603 268.96 624.494C269.083 624.197 269.825 619.568 270.498 614.847C270.647 613.807 270.796 612.768 270.836 612.552C270.945 611.931 271.43 607.789 271.647 605.603C271.753 604.523 271.902 603.281 271.983 602.836C272.065 602.39 272.212 600.934 272.32 599.597C272.429 598.262 272.577 596.615 272.644 595.953C272.725 595.28 272.847 593.742 272.927 592.513C273.008 591.284 273.13 589.774 273.197 589.139C273.279 588.505 273.426 586.171 273.535 583.945C273.657 581.717 273.792 578.978 273.873 577.873C274.48 568.062 274.48 542.316 273.873 532.196C273.804 531.048 273.684 528.796 273.603 527.203C273.521 525.61 273.4 523.505 273.332 522.546C273.251 521.575 273.077 519.186 272.927 517.217C272.779 515.247 272.63 513.397 272.59 513.102C272.549 512.804 272.429 511.495 272.32 510.2C272.212 508.905 272.091 507.69 272.051 507.502C272.01 507.313 271.862 506.07 271.713 504.735C271.363 501.509 270.931 497.948 270.836 497.53C270.796 497.341 270.647 496.261 270.498 495.153C269.837 490.108 268.61 483.077 267.557 478.287C267.408 477.612 267.167 476.519 267.018 475.858C266.64 474.131 266.193 472.39 266.047 472.08C265.978 471.931 265.857 471.567 265.763 471.27C265.465 470.272 263.967 466.938 263.59 466.412C263.535 466.331 263.105 465.697 262.644 464.996C261.687 463.552 259.232 460.988 257.76 459.908C254.847 457.763 251.607 456.305 247.425 455.28C246.704 455.104 245.984 454.923 245.266 454.739C244.767 454.592 243.767 454.375 241.622 453.93C241.014 453.803 240.407 453.672 239.8 453.538C237.196 452.905 228.721 451.528 223.203 450.826C222.095 450.691 221.003 450.543 220.774 450.49C220.368 450.408 218.412 450.207 214.432 449.815C213.324 449.706 211.8 449.545 211.058 449.477C210.316 449.396 208.979 449.275 208.09 449.193C207.199 449.127 205.742 449.004 204.851 448.938C201.828 448.681 193.436 448.196 188.793 447.993C179.819 447.601 163.248 447.48 152.967 447.737ZM93.5123 538.916C93.593 538.982 93.985 539.105 94.3752 539.199C95.105 539.374 96.1304 539.847 96.8983 540.359C97.5058 540.764 98.9372 542.302 99.2189 542.843C99.3556 543.112 99.5025 543.356 99.5429 543.396C99.585 543.436 99.7055 543.705 99.8139 544.003C99.9084 544.299 100.029 544.61 100.097 544.677C100.272 544.934 100.476 546.539 100.476 547.727C100.476 548.888 100.299 550.25 100.07 550.749C99.3417 552.422 98.99 552.975 98.073 553.948C97.2222 554.825 96.8723 555.095 95.712 555.662C94.7667 556.134 94.0916 556.377 93.5526 556.43C93.1203 556.484 92.7422 556.578 92.7019 556.633C92.6078 556.796 89.6797 556.796 89.6797 556.633C89.6797 556.578 89.3419 556.484 88.9096 556.43C88.4916 556.377 87.9665 556.255 87.7372 556.16C87.4446 556.029 87.1475 555.907 86.8465 555.796C86.5894 555.702 86.3461 555.593 86.3058 555.553C86.2655 555.499 86.0625 555.378 85.8332 555.27C85.0509 554.879 83.4319 553.083 82.9597 552.098C82.7025 551.572 82.4611 551.059 82.393 550.952C81.9342 550.034 81.8536 545.851 82.2841 544.88C82.4068 544.623 82.5816 544.192 82.6761 543.934C82.7706 543.679 82.879 543.436 82.9194 543.396C82.9597 543.356 83.121 543.084 83.2697 542.788C83.5268 542.288 85.1316 540.561 85.361 540.561C85.4147 540.561 85.5375 540.466 85.632 540.346C85.8874 540.062 87.1964 539.428 87.993 539.226C88.3706 539.131 88.7891 538.996 88.9378 538.928C89.0865 538.862 89.4503 538.794 89.7464 538.753C90.5425 538.673 93.3372 538.794 93.5123 538.916ZM240.542 548.32V555.134H214.364V546.014L215.822 545.783C219.047 545.284 221.057 544.946 221.178 544.866C221.259 544.812 221.92 544.705 222.662 544.61C223.404 544.516 224.08 544.393 224.146 544.339C224.228 544.287 224.862 544.164 225.564 544.07C226.265 543.989 227.183 543.826 227.589 543.719C227.993 543.625 228.843 543.476 229.477 543.396C230.112 543.313 230.745 543.193 230.894 543.138C231.043 543.072 231.717 542.95 232.378 542.855C233.054 542.775 233.808 542.654 234.065 542.572C234.321 542.505 235.294 542.316 236.225 542.167C237.156 542.018 238.37 541.818 238.923 541.723C239.476 541.614 240.07 541.534 240.245 541.52L240.542 541.506V548.32ZM128.812 554.338V562.422H142.305V574.432H128.799L128.852 586.941C128.894 600.421 128.865 599.76 129.596 601.419C130.148 602.702 131.713 604.01 133.062 604.334C133.292 604.388 133.549 604.495 133.657 604.577C133.913 604.779 139.378 604.779 139.621 604.564C139.728 604.483 140.215 604.375 140.727 604.32L141.632 604.226V616.061L141.266 616.222C140.93 616.371 139.378 616.614 137.247 616.87C134.21 617.221 128.677 617.262 128.353 616.923C128.272 616.857 128.057 616.803 127.854 616.803C127.327 616.803 125.142 616.397 124.979 616.276C124.898 616.222 124.535 616.087 124.156 616.007C123.793 615.912 123.428 615.79 123.346 615.737C123.28 615.669 122.97 615.548 122.673 615.454C122.375 615.36 122.105 615.237 122.065 615.196C122.025 615.156 121.782 615.007 121.524 614.859C120.404 614.265 120.068 614.05 119.473 613.55C119.124 613.266 118.8 613.025 118.732 613.025C118.597 613.011 117.571 611.891 116.763 610.866C116.142 610.069 115.223 608.545 114.913 607.761C114.804 607.506 114.684 607.262 114.644 607.222C114.589 607.181 114.455 606.763 114.32 606.277C114.197 605.792 114.036 605.279 113.968 605.13C113.902 604.982 113.739 604.375 113.632 603.781C113.518 603.217 113.396 602.655 113.266 602.094C113.172 601.69 113.105 596.939 113.065 587.953L113.011 574.432H105.197V562.422H113.025V548.819L113.942 548.725C114.441 548.672 114.913 548.577 114.981 548.523C115.062 548.469 115.723 548.349 116.465 548.254C117.207 548.16 117.883 548.023 117.949 547.97C118.03 547.916 118.88 547.767 119.839 547.647C120.81 547.51 121.661 547.363 121.727 547.309C121.808 547.255 122.254 547.16 122.739 547.12C123.373 547.044 124.004 546.94 124.629 546.81C126.073 546.513 128.596 546.12 128.717 546.189C128.771 546.215 128.812 549.887 128.812 554.338ZM173.545 561.139C175.433 561.247 177.567 561.491 177.727 561.612C177.808 561.665 178.132 561.76 178.47 561.801C179.239 561.923 181.116 562.476 182.248 562.934C183.193 563.313 185.298 564.364 185.622 564.636C185.73 564.716 185.972 564.877 186.161 564.959C186.35 565.054 186.945 565.524 187.47 565.985C187.996 566.457 188.483 566.862 188.549 566.888C188.753 566.982 191.153 569.898 191.153 570.059C191.153 570.099 191.276 570.316 191.425 570.517C191.708 570.923 192.909 573.258 192.909 573.407C192.909 573.459 193.017 573.756 193.164 574.066C193.299 574.378 193.462 574.85 193.516 575.106C193.57 575.363 193.665 575.633 193.717 575.713C193.771 575.781 193.894 576.212 193.988 576.658C194.069 577.103 194.177 577.563 194.218 577.67C194.272 577.778 194.393 578.357 194.501 578.952C194.663 579.843 194.703 583.203 194.757 598.073L194.811 616.127H180.09L180.076 614.535C180.062 613.672 180.022 612.417 179.967 611.756L179.887 610.542L179.495 611.081C178.876 611.905 176.837 613.847 176.028 614.386C174.259 615.548 173.788 615.83 173.302 615.993C173.004 616.074 172.614 616.236 172.425 616.342C172.222 616.437 171.723 616.6 171.317 616.681C170.913 616.775 170.509 616.897 170.441 616.95C169.753 617.463 161.251 617.45 160.59 616.938C160.523 616.884 160.037 616.763 159.51 616.668C158.997 616.574 158.39 616.425 158.161 616.316C157.946 616.222 157.364 615.979 156.894 615.79C156.351 615.554 155.82 615.293 155.301 615.007C154.943 614.786 154.578 614.575 154.207 614.374C153.641 614.063 153.452 613.887 151.914 612.349C150.335 610.771 150.132 610.556 150.132 610.407C150.132 610.353 149.957 610.055 149.756 609.745C149.538 609.436 149.229 608.868 149.066 608.503C148.905 608.127 148.688 607.68 148.593 607.491C148.487 607.302 148.338 606.817 148.244 606.412C148.149 606.007 148.029 605.603 147.974 605.535C147.825 605.346 147.568 603.429 147.568 602.593C147.568 602.203 147.502 601.811 147.421 601.73C147.258 601.567 147.298 601.028 147.717 597.775C147.797 597.142 147.92 596.561 147.974 596.494C148.028 596.414 148.149 596.062 148.229 595.698C148.404 594.996 148.77 594.079 149.148 593.39C149.269 593.161 149.43 592.851 149.512 592.688C149.593 592.513 149.701 592.378 149.768 592.378C149.822 592.378 149.862 592.298 149.862 592.203C149.862 592.055 151.346 590.125 151.604 589.949C151.657 589.909 151.752 589.775 151.793 589.639C151.846 589.491 152.008 589.356 152.156 589.316C152.305 589.276 152.426 589.193 152.426 589.139C152.426 589.005 154.694 587.223 155.462 586.778C156.015 586.441 157.258 585.807 159.065 584.943C159.323 584.808 161.844 583.999 162.952 583.688C163.356 583.567 164.153 583.404 164.706 583.324C165.259 583.229 165.785 583.121 165.854 583.069C165.934 583.014 166.743 582.892 167.676 582.811C168.607 582.73 169.753 582.596 170.239 582.527C172.156 582.244 178.888 582.298 179.604 582.596C179.847 582.703 179.859 582.65 179.765 581.502C179.712 580.841 179.617 580.273 179.563 580.233C179.495 580.193 179.415 579.937 179.36 579.666C179.266 579.167 178.753 578.076 178.268 577.332C177.957 576.861 176.648 575.51 176.499 575.51C176.447 575.51 176.217 575.376 175.986 575.2C175.393 574.768 174.436 574.337 173.855 574.229C173.571 574.175 173.342 574.08 173.342 574.026C173.342 573.433 164.625 573.338 162.007 573.919C161.67 573.986 160.887 574.134 160.254 574.243C159.618 574.35 158.985 574.498 158.836 574.567C158.687 574.633 158.203 574.756 157.756 574.836C157.312 574.917 156.825 575.039 156.677 575.106C156.528 575.174 155.989 575.323 155.476 575.444C154.964 575.565 154.477 575.699 154.396 575.767C154.316 575.822 153.952 575.956 153.574 576.051C153.21 576.145 152.832 576.28 152.764 576.334C152.683 576.388 152.319 576.509 151.953 576.604C151.577 576.685 151.05 576.873 150.781 577.008C150.497 577.157 150.24 577.265 150.2 577.265C150.16 577.265 150.132 574.444 150.132 571.004C150.132 566.132 150.174 564.716 150.308 564.607C150.403 564.527 150.781 564.392 151.145 564.298C151.523 564.217 151.887 564.095 151.953 564.041C152.036 563.986 152.48 563.826 152.967 563.703C153.452 563.568 153.91 563.421 153.978 563.367C154.059 563.298 154.477 563.19 154.909 563.097C155.356 563.003 155.814 562.88 155.921 562.814C156.043 562.76 156.596 562.611 157.149 562.49C157.579 562.406 158.007 562.312 158.432 562.207C158.579 562.164 159.335 562.044 160.117 561.935C160.901 561.828 161.724 561.68 161.939 561.612C162.723 561.37 169.793 560.924 171.385 561.018C171.83 561.044 172.803 561.099 173.545 561.139V561.139ZM99.1244 589.276V616.127H83.3378V562.422H99.1244V589.276ZM218.412 579.153C218.412 595.131 218.48 598.222 218.804 598.654C218.87 598.72 218.952 598.99 219.007 599.247C219.196 600.258 220.072 601.73 221.07 602.728C221.596 603.268 222.19 603.741 222.379 603.793C222.582 603.836 222.73 603.916 222.73 603.97C222.73 604.023 223.203 604.212 223.782 604.401C224.647 604.672 225.105 604.724 226.455 604.724C227.4 604.724 228.222 604.658 228.411 604.577C228.586 604.483 229.004 604.348 229.342 604.254C229.68 604.16 230.287 603.876 230.691 603.604C231.447 603.12 232.851 601.825 232.851 601.608C232.851 601.541 233.04 601.244 233.255 600.96C233.484 600.663 233.661 600.367 233.661 600.287C233.661 600.204 233.782 599.921 233.916 599.651C234.065 599.382 234.226 598.923 234.281 598.64C234.321 598.342 234.415 598.047 234.484 597.978C234.821 597.546 234.876 594.821 234.876 578.992V562.422H250.662V616.128H243.187C237.345 616.128 235.67 616.087 235.59 615.953C235.535 615.872 235.469 614.589 235.441 613.119C235.415 611.662 235.347 610.461 235.294 610.461C235.24 610.461 235.077 610.622 234.916 610.825C234.16 611.851 232.972 613.011 231.11 614.549C230.84 614.764 230.288 615.062 229.073 615.655C228.52 615.924 227.913 616.236 227.724 616.33C227.535 616.425 227.022 616.574 226.575 616.668C226.131 616.763 225.739 616.883 225.699 616.938C225.564 617.139 223.176 617.342 220.815 617.342C218.494 617.342 216.604 617.181 216.051 616.95C215.902 616.884 215.39 616.721 214.903 616.6C214.419 616.479 213.972 616.316 213.892 616.262C213.825 616.208 213.502 616.073 213.19 615.979C212.866 615.898 212.611 615.777 212.611 615.723C212.611 615.669 212.368 615.549 212.07 615.454C211.774 615.36 211.531 615.237 211.531 615.183C211.531 615.13 211.382 615.021 211.207 614.941C210.047 614.414 207.415 611.945 206.309 610.353C205.633 609.381 204.594 607.437 204.379 606.723C204.298 606.439 204.136 606.021 204.041 605.805C203.947 605.575 203.786 605.09 203.703 604.725C203.623 604.349 203.502 603.956 203.434 603.822C203.367 603.699 203.245 603.065 203.164 602.404C203.084 601.756 202.935 601.095 202.854 600.946C202.732 600.745 202.678 595.927 202.651 581.542L202.611 562.422H218.412L218.412 579.153Z" fill="#FF6200"/>
<path d="M171.79 592.257C171.13 592.324 170.455 592.432 170.306 592.499C170.157 592.581 169.672 592.702 169.226 592.796C168.796 592.877 168.215 593.04 167.945 593.161C165.92 594.037 164.935 594.618 164.261 595.32C163.614 595.996 162.964 597.25 162.858 598.033C162.83 598.302 162.735 598.654 162.655 598.801C162.506 599.112 162.56 600.07 162.804 601.324C163.073 602.687 164.153 604.348 165.11 604.847C166.811 605.724 167.135 605.858 168.08 606.007C169.779 606.263 173.018 606.116 173.72 605.738C173.841 605.67 174.341 605.44 174.826 605.225C175.313 604.996 175.946 604.63 176.244 604.4C176.541 604.172 176.877 603.902 176.999 603.807C177.768 603.228 179.186 600.88 179.374 599.908C179.415 599.665 179.523 599.382 179.604 599.273C179.698 599.152 179.765 597.91 179.793 595.684L179.846 592.283L179.117 592.203C178.131 592.081 173.275 592.123 171.79 592.257Z" fill="#FF6200"/>
<path d="M562 556.1C562 553 561.7 549.8 561.2 546.8H517.9V564.5H542.7C541.7 570.2 538.4 575.2 533.5 578.4L548.3 589.9C557 581.8 562 570 562 556.1Z" fill="#4280EF"/>
<path d="M517.9 600.9C530.3 600.9 540.7 596.8 548.3 589.8L533.5 578.4C529.4 581.2 524.1 582.8 517.9 582.8C505.9 582.8 495.8 574.7 492.1 563.9L476.9 575.6C484.7 591.1 500.5 600.9 517.9 600.9Z" fill="#34A353"/>
<path d="M492.1 563.8C490.2 558.1 490.2 551.9 492.1 546.2L476.9 534.4C470.4 547.4 470.4 562.7 476.9 575.6L492.1 563.8Z" fill="#F6B704"/>
<path d="M517.9 527.3C524.4 527.2 530.8 529.7 535.5 534.2L548.6 521C540.3 513.2 529.3 509 517.9 509.1C500.5 509.1 484.7 518.9 476.9 534.4L492.1 546.2C495.8 535.3 505.9 527.3 517.9 527.3Z" fill="#E54335"/>
<path d="M780.306 575.612C780.603 576.356 780.509 577.308 780.364 577.885C780.11 578.91 779.414 579.956 777.355 579.956C775.426 579.956 774.252 578.845 774.252 577.171V574.191H765.964V576.558C765.964 583.412 771.381 585.482 777.188 585.482C782.771 585.482 787.368 583.592 788.101 578.462C788.478 575.807 788.202 574.068 788.072 573.426C786.767 566.991 775.049 565.072 774.172 561.471C774.05 560.94 774.04 560.39 774.143 559.855C774.361 558.867 775.035 557.792 776.964 557.792C778.776 557.792 779.828 558.903 779.828 560.577V562.482H787.535V560.317C787.535 553.622 781.495 552.576 777.13 552.576C771.634 552.576 767.146 554.387 766.327 559.401C766.109 560.772 766.073 561.998 766.399 563.542C767.741 569.819 778.711 571.637 780.306 575.612Z" fill="#034EA2"/>
<path d="M799.027 553.557L793.299 584.285H801.645L805.872 556.4H806.046L810.157 584.285H818.459L812.768 553.55L799.027 553.557ZM845.686 553.557L841.879 577.048H841.698L837.899 553.557H825.304L824.623 584.285H832.352L832.54 556.659H832.714L837.87 584.285H845.708L850.87 556.666H851.037L851.233 584.285H858.955L858.273 553.55L845.686 553.557Z" fill="#034EA2"/>
<path d="M880.707 575.555C881.004 576.298 880.91 577.25 880.765 577.827C880.511 578.852 879.815 579.898 877.756 579.898C875.827 579.898 874.652 578.787 874.652 577.113V574.133H866.365V576.5C866.365 583.354 871.781 585.424 877.589 585.424C883.172 585.424 887.769 583.534 888.501 578.404C888.878 575.749 888.603 574.011 888.472 573.369C887.167 566.933 875.45 565.014 874.573 561.414C874.451 560.883 874.441 560.332 874.544 559.798C874.761 558.809 875.436 557.734 877.364 557.734C879.177 557.734 880.228 558.845 880.228 560.519V562.424H887.936V560.259C887.936 553.564 881.896 552.518 877.531 552.518C872.035 552.518 867.547 554.329 866.727 559.343C866.51 560.714 866.474 561.94 866.8 563.484C868.141 569.761 879.112 571.579 880.707 575.555Z" fill="#034EA2"/>
<path d="M906.628 579.682C908.774 579.682 909.434 578.21 909.586 577.459C909.652 577.127 909.659 576.68 909.659 576.283V553.557H917.475V575.584C917.477 576.257 917.453 576.931 917.403 577.604C916.859 583.339 912.305 585.201 906.628 585.201C900.944 585.201 896.39 583.339 895.846 577.604C895.825 577.301 895.767 576.146 895.774 575.584V553.55H903.59V576.276C903.583 576.68 903.597 577.127 903.663 577.459C903.808 578.21 904.475 579.682 906.628 579.682ZM944.39 553.557L944.81 577.676H944.644L937.538 553.557H926.082V583.96H933.673L933.253 559.004H933.419L941.04 583.96H952.039V553.557H944.39ZM971.036 579.364C973.269 579.364 974.052 577.957 974.19 577.127C974.255 576.788 974.263 576.356 974.263 575.973V571.5H971.094V567.027H982.035V575.266C982.035 575.843 982.021 576.262 981.927 577.286C981.419 582.885 976.539 584.883 971.065 584.883C965.591 584.883 960.718 582.885 960.204 577.286C960.117 576.262 960.095 575.843 960.095 575.266V562.337C960.095 561.789 960.167 560.822 960.225 560.317C960.914 554.567 965.591 552.72 971.065 552.72C976.539 552.72 981.339 554.553 981.905 560.31C982.006 561.291 981.977 562.33 981.977 562.33V563.362H974.19V561.637C974.19 561.637 974.19 560.916 974.096 560.469C973.951 559.79 973.371 558.232 971.007 558.232C968.759 558.232 968.1 559.711 967.933 560.469C967.839 560.873 967.802 561.421 967.802 561.919V575.966C967.802 576.356 967.817 576.788 967.875 577.135C968.02 577.957 968.803 579.364 971.036 579.364Z" fill="#034EA2"/>
<defs>
<linearGradient id="paint0_linear_368_1446" x1="167.728" y1="-8.97478e-07" x2="143.467" y2="331.404" gradientUnits="userSpaceOnUse">
<stop stop-color="#6B4DE6" stop-opacity="0.866667"/>
<stop offset="1" stop-color="#4DADE6"/>
</linearGradient>
<linearGradient id="paint1_linear_368_1446" x1="167.728" y1="388" x2="143.467" y2="719.404" gradientUnits="userSpaceOnUse">
<stop stop-color="#6B4DE6" stop-opacity="0.866667"/>
<stop offset="1" stop-color="#4DADE6"/>
</linearGradient>
<linearGradient id="paint2_linear_368_1446" x1="521.728" y1="-8.97478e-07" x2="497.467" y2="331.404" gradientUnits="userSpaceOnUse">
<stop stop-color="#6B4DE6" stop-opacity="0.866667"/>
<stop offset="1" stop-color="#4DADE6"/>
</linearGradient>
<linearGradient id="paint3_linear_368_1446" x1="521.728" y1="388" x2="497.467" y2="719.404" gradientUnits="userSpaceOnUse">
<stop stop-color="#6B4DE6" stop-opacity="0.866667"/>
<stop offset="1" stop-color="#4DADE6"/>
</linearGradient>
<linearGradient id="paint4_linear_368_1446" x1="874.728" y1="-8.97478e-07" x2="850.467" y2="331.404" gradientUnits="userSpaceOnUse">
<stop stop-color="#6B4DE6" stop-opacity="0.866667"/>
<stop offset="1" stop-color="#4DADE6"/>
</linearGradient>
<linearGradient id="paint5_linear_368_1446" x1="874.728" y1="388" x2="850.467" y2="719.404" gradientUnits="userSpaceOnUse">
<stop stop-color="#6B4DE6" stop-opacity="0.866667"/>
<stop offset="1" stop-color="#4DADE6"/>
</linearGradient>
<clipPath id="clip0_368_1446">
<rect width="252" height="252" fill="white" transform="translate(47 47)"/>
</clipPath>
<clipPath id="clip1_368_1446">
<rect width="162" height="180" fill="white" transform="translate(802 73)"/>
</clipPath>
</defs>
</svg>
